<svg xmlns="http://www.w3.org/2000/svg" viewBox="0 0 670.5 605"><defs><style>.a{fill:white;}.b{fill:white;}.c{fill:#46c4f3;}.d{fill:white;}.e{fill:white;}.f{fill:white}.g{fill:white}.h{fill:white;}.i{fill:white;}</style></defs><title>logo</title><path class="a" d="M1330.06,969v1H1469.7a32.56,32.56,0,0,1-5.13.81q-65.34.06-130.67,0c-3.64,0-5.54,1.08-7.22,4.4-3.78,7.5-8.16,14.7-12.3,22-.46-1.82-1.31-3.65-1.32-5.48-.09-25.33.06-50.66-.17-76,0-4.63,1.27-5.84,5.85-5.82,38.15.18,76.31.11,114.47.06a40.73,40.73,0,0,0,5.76-.81l29.36,1.69-3.27.47c.06.34.11.67.17,1l6.75-1.2,27.69,3.89-29.6,54Z" transform="translate(-1104 -587)"/><path class="a" d="M1507.59,796.67c-5.17,15.45-16,25.68-30,33.21-15.51,8.33-32.37,11.46-49.57,11.84-37.8.82-75.62.79-113.44,1.11-.64,0-1.29-.12-2.67-.25v-5.32c0-19,0-38-.05-57a27.71,27.71,0,0,0-1-5.16,5.74,5.74,0,0,0,.13-.8,4.32,4.32,0,0,0-1.36-.3c-23.74,0-47.48,0-71.22.06-1.1,0-2.19.94-3.28,1.45q-.06,34.47-.1,68.94,0,111.91,0,223.82v5.83c-1.4-1.5-2.31-2.33-3-3.29-31.7-42.44-51.3-89.82-58.06-142.43-.36-2.8-.53-5.61-.79-8.42l1.14-6.92-1-.12-.33,4.29c-.48-13.26-1.7-26.54-1.31-39.77a290,290,0,0,1,20.73-99,5.31,5.31,0,0,0,.42-1.78,302.14,302.14,0,0,1,45-76.69l170,0a49.85,49.85,0,0,0,6.26-.8l1.06-.31,30.26,2-3.32.33.12,1,6.89-1.12c18,1.34,34.79,6,48.57,18.27,11.4,10.16,14.46,24,15.21,38.4A104.65,104.65,0,0,1,1507.59,796.67Z" transform="translate(-1104 -587)"/><path class="a" d="M1556.88,991q0,9.48,0,18.94c-.74,33.51-18,56.17-47,70.9-16.44,8.37-34.45,11.29-52.56,12.78-16.74,1.38-33.58,1.54-50.38,2.24a37.49,37.49,0,0,0-5.71-.85c-26.53-.06-53.07,0-79.6-.09a46.44,46.44,0,0,1-6.77-1q13.47-25,26.94-50c4.12-7.64,8.32-15.23,12.49-22.85a31.26,31.26,0,0,0,5.29.89q37.88.09,75.74,0a23.61,23.61,0,0,0,4.66-1q14.09,14.89,28.19,29.77c1.12,1.18,2.4,2.22,3.6,3.32a7.66,7.66,0,0,1,.23.82,10.5,10.5,0,0,0,3.09,1.06c12.81.08,25.61.06,38.41,0,.46,0,.91-.66,1.37-1l.45-.82c2.29-1.49,4-3.85,2.49-6.13-1.12-1.66-4-3-6.1-3-10.31-.3-20.64-.1-31-.18a26.16,26.16,0,0,1-4.65-.85h37.8c-12-.91-24.09-.93-36.14-.88-.57,0-1.15.54-1.72.82q-13.41-14.19-26.81-28.38c-1.47-1.56-3.07-3-4.61-4.51a5.52,5.52,0,0,1,.26-.55c-1.44-.48-2.88-1.38-4.33-1.39q-43.55-.12-87.09,0c-1.47,0-2.94.83-4.41,1.28,0,.22.1.44.16.66-6,10.44-12.06,20.84-18,31.33s-11.5,20.79-17.2,31.21a20.44,20.44,0,0,0-1.13,3.22q-.56-7.35-1.12-14.72l33.48-61a26.38,26.38,0,0,0,4.81.89q50,.06,100,0c8.05,7.93,16,16,24.25,23.69,1.33,1.24,4.5,2,5.91,1.24s2.34-3.57,2.62-5.59c.15-1-1.5-2.37-2.51-3.4Q1467,1004.42,1453.62,991a2.34,2.34,0,0,1,.3-.47c-1.43-.5-2.85-1.45-4.28-1.46q-52.58-.12-105.14,0c-1.48,0-3,.84-4.42,1.28,0,.23.1.44.16.66-4.31,7.41-8.73,14.75-12.9,22.23-4.91,8.82-9.61,17.76-14.4,26.65l-1-16.9q11.58-21.09,23.17-42.16l-.17.45a56.19,56.19,0,0,0,6.3.7q64.62.06,129.26,0c1.82,0,3.63-.82,5.44-1.26a5.12,5.12,0,0,0-.14-.68l32.63-60.57C1544.09,934.13,1555.81,956.83,1556.88,991Z" transform="translate(-1104 -587)"/><path class="a" d="M1490.33,587.46c-.88.65-1.77,1.43-2.67,1.45q-14.65.23-29.32,0a5.33,5.33,0,0,1-2.59-1.4q8.8-.51,17.75-.51Q1482,587,1490.33,587.46Z" transform="translate(-1104 -587)"/><path class="a" d="M1621.26,626.15c-8.26,10.92-16.3,21.64-24.43,32.29-3.82,5-7.81,9.86-11.72,14.78l-22.13-.17c-20.29-17.89-44.13-28.65-70.3-34.45-8.88-2-18-3-27-4.48l4.31-.35c0-.34-.07-.68-.11-1l-7.9,1.11q-72.18-1-144.35-2c-.25,0-.5-.25-1.15-.59,1.37-.91,2.51-1.74,3.73-2.45a297.71,297.71,0,0,1,122.77-40c1.83-.18,3.65-.48,5.47-.82h0q3.6-.3,7.23-.51a5.33,5.33,0,0,0,2.59,1.4q14.65.23,29.32,0c.9,0,1.79-.8,2.67-1.45,1.9.1,3.79.23,5.68.37l5.21,1.07-4.28.33c0,.34.07.68.11,1l6.92-1.14c17.27,3.22,34.71,5.69,51.75,9.82,21.71,5.27,42.13,14.23,61.72,25C1618.58,624.54,1619.69,625.23,1621.26,626.15Z" transform="translate(-1104 -587)"/><path class="a" d="M1774.5,908.75c-1.06,10-1.8,20-3.47,29.89-12.55,74.21-48,135.49-105.77,183.5-48.61,40.38-104.77,62.91-167.84,68-3.53.29-7,1-10.53,1.52q-6.66.29-13.39.29-7.62,0-15.16-.37l-6.64-1.49H1461c0-.48,0-1-.07-1.45l-12.89,1.19a245.24,245.24,0,0,1-61.61-11.46c-13.28-4.19-26.18-9.62-39.25-14.5a33,33,0,0,1,5.18-.81c26.33,0,52.66,0,79-.08,5.28,0,10.56-.56,15.84-.85,35.9-1.11,70.89-6.37,103.26-23.19,37.7-19.59,65.92-47.83,78.87-89.12,10.84-34.6,11.32-69.7-.78-104-15.52-44-48.21-70.16-91.85-83.82-3.12-1-6.29-1.77-9.93-2.79,6.56-4.49,12.84-8.43,18.73-12.87,37.07-27.94,51.33-65.49,45.66-110.92-1.28-10.29-4.61-20.33-7-30.49l13.68-1.47-.09-1-13.85,1.69c.19-.67.3-1.88.57-1.92a14.51,14.51,0,0,1,4.46-.07c7.23,1.31,11.73-1.7,15.94-7.69,8.86-12.58,18.64-24.52,28-36.73,1.51.41,3,1.14,4.54,1.16,8.46.12,16.91.1,25.37,0A21,21,0,0,0,1667,658c15.11,11.66,28.1,25.48,40.11,40.2a299.46,299.46,0,0,1,45.09,75.08,88,88,0,1,0,22.31,135.43Z" transform="translate(-1104 -587)"/><path class="a" d="M1774.5,908.75c-1.06,10-1.8,20-3.47,29.89-12.55,74.21-48,135.49-105.77,183.5-48.61,40.38-104.77,62.91-167.84,68-3.53.29-7,1-10.53,1.52l-1.89.29h-25l-1.66-.37-6.64-1.49H1461c0-.48,0-1-.07-1.45l-12.89,1.19a245.24,245.24,0,0,1-61.61-11.46c-13.28-4.19-26.18-9.62-39.25-14.5a33,33,0,0,1,5.18-.81c26.33,0,52.66,0,79-.08,5.28,0,10.56-.56,15.84-.85,35.9-1.11,70.89-6.37,103.26-23.19,37.7-19.59,65.92-47.83,78.87-89.12,10.84-34.6,11.32-69.7-.78-104-15.52-44-48.21-70.16-91.85-83.82-3.12-1-6.29-1.77-9.93-2.79,6.56-4.49,12.84-8.43,18.73-12.87,37.07-27.94,51.33-65.49,45.66-110.92-1.28-10.29-4.61-20.33-7-30.49l13.68-1.47-.09-1-13.85,1.69c.19-.67.3-1.88.57-1.92a14.51,14.51,0,0,1,4.46-.07c7.23,1.31,11.73-1.7,15.94-7.69,8.86-12.58,18.64-24.52,28-36.73,1.51.41,3,1.14,4.54,1.16,8.46.12,16.91.1,25.37,0A21,21,0,0,0,1667,658c15.11,11.66,28.1,25.48,40.11,40.2a299.46,299.46,0,0,1,45.09,75.08,88,88,0,1,0,22.31,135.43Z" transform="translate(-1104 -587)"/><path class="a" d="M1621.26,626.15c-8.26,10.92-16.3,21.64-24.43,32.29-3.82,5-7.81,9.86-11.72,14.78l-22.13-.17c-20.29-17.89-44.13-28.65-70.3-34.45-8.88-2-18-3-27-4.48l4.31-.35c0-.34-.07-.68-.11-1l-7.9,1.11q-72.18-1-144.35-2c-.25,0-.5-.25-1.15-.59,1.37-.91,2.51-1.74,3.73-2.45a297.71,297.71,0,0,1,122.77-40c1.83-.18,3.65-.48,5.47-.82h0c1.83-.34,3.65-.71,5.48-1h1c.25.15.5.33.75.51a5.33,5.33,0,0,0,2.59,1.4q14.65.23,29.32,0c.9,0,1.79-.8,2.67-1.45.22-.17.45-.32.67-.46h1l4,.83,5.21,1.07-4.28.33c0,.34.07.68.11,1l6.92-1.14c17.27,3.22,34.71,5.69,51.75,9.82,21.71,5.27,42.13,14.23,61.72,25C1618.58,624.54,1619.69,625.23,1621.26,626.15Z" transform="translate(-1104 -587)"/><path class="b" d="M1104,698q153.38,0,306.76,0a22.14,22.14,0,0,1,4.26.84l-1.06.31c-1.16-.07-2.32-.21-3.48-.21q-150.64-.11-301.3-.15c-1.32,0-2.63.71-3.94,1.1L1104,700Z" transform="translate(-1104 -587)"/><path class="c" d="M1478,587h0Z" transform="translate(-1104 -587)"/><path class="d" d="M1468,1192h0Z" transform="translate(-1104 -587)"/><path class="e" d="M1487,587l-2,.85-2-.85Z" transform="translate(-1104 -587)"/><path class="e" d="M1464,587l-2,.86-2-.86Z" transform="translate(-1104 -587)"/><path class="a" d="M1507.59,796.67c-5.17,15.45-16,25.68-30,33.21-15.51,8.33-32.37,11.46-49.57,11.84-37.8.82-75.62.79-113.44,1.11-.64,0-1.29-.12-2.67-.25v-5.32c0-19,0-38-.05-57a27.71,27.71,0,0,0-1-5.16,5.74,5.74,0,0,0,.13-.8,4.32,4.32,0,0,0-1.36-.3c-23.74,0-47.48,0-71.22.06-1.1,0-2.19.94-3.28,1.45q-.06,34.47-.1,68.94,0,111.91,0,223.82v5.83c-1.4-1.5-2.31-2.33-3-3.29-31.7-42.44-51.3-89.82-58.06-142.43-.36-2.8-.53-5.61-.79-8.42l1.14-6.92-1-.12-.33,4.29c-.48-13.26-1.7-26.54-1.31-39.77a290,290,0,0,1,20.73-99,5.31,5.31,0,0,0,.42-1.78c.09-1.82-1.25-2.69-2.62-3.87q-41-35.36-82-70.75a8.06,8.06,0,0,1-.93-1.15A52.81,52.81,0,0,1,1114,700l123.68,0,170,0a49.85,49.85,0,0,0,6.26-.8l1.06-.31,30.26,2-3.32.33.12,1,6.89-1.12c18,1.34,34.79,6,48.57,18.27,11.4,10.16,14.46,24,15.21,38.4A104.65,104.65,0,0,1,1507.59,796.67Z" transform="translate(-1104 -587)"/><path class="a" d="M1556.88,991q0,9.48,0,18.94c-.74,33.51-18,56.17-47,70.9-16.44,8.37-34.45,11.29-52.56,12.78-16.74,1.38-33.58,1.54-50.38,2.24a37.49,37.49,0,0,0-5.71-.85c-26.53-.06-53.07,0-79.6-.09a46.44,46.44,0,0,1-6.77-1q13.47-25,26.94-50c4.12-7.64,8.32-15.23,12.49-22.85a31.26,31.26,0,0,0,5.29.89q37.88.09,75.74,0a23.61,23.61,0,0,0,4.66-1q14.09,14.89,28.19,29.77c1.12,1.18,2.4,2.22,3.6,3.32a7.66,7.66,0,0,1,.23.82,10.5,10.5,0,0,0,3.09,1.06c12.81.08,25.61.06,38.41,0,.46,0,.91-.66,1.37-1l.45-.82c2.29-1.49,4-3.85,2.49-6.13-1.12-1.66-4-3-6.1-3-10.31-.3-20.64-.1-31-.18a26.16,26.16,0,0,1-4.65-.85h37.8c-12-.91-24.09-.93-36.14-.88-.57,0-1.15.54-1.72.82q-13.41-14.19-26.81-28.38c-1.47-1.56-3.07-3-4.61-4.51a5.52,5.52,0,0,1,.26-.55c-1.44-.48-2.88-1.38-4.33-1.39q-43.55-.12-87.09,0c-1.47,0-2.94.83-4.41,1.28,0,.22.1.44.16.66-6,10.44-12.06,20.84-18,31.33s-11.5,20.79-17.2,31.21a20.44,20.44,0,0,0-1.13,3.22q-.56-7.35-1.12-14.72l33.48-61a26.38,26.38,0,0,0,4.81.89q50,.06,100,0c8.05,7.93,16,16,24.25,23.69,1.33,1.24,4.5,2,5.91,1.24s2.34-3.57,2.62-5.59c.15-1-1.5-2.37-2.51-3.4Q1467,1004.42,1453.62,991a2.34,2.34,0,0,1,.3-.47c-1.43-.5-2.85-1.45-4.28-1.46q-52.58-.12-105.14,0c-1.48,0-3,.84-4.42,1.28,0,.23.1.44.16.66-4.31,7.41-8.73,14.75-12.9,22.23-4.91,8.82-9.61,17.76-14.4,26.65l-1-16.9q11.58-21.09,23.17-42.16l-.17.45a56.19,56.19,0,0,0,6.3.7q64.62.06,129.26,0c1.82,0,3.63-.82,5.44-1.26a5.12,5.12,0,0,0-.14-.68l32.63-60.57C1544.09,934.13,1555.81,956.83,1556.88,991Z" transform="translate(-1104 -587)"/><path class="a" d="M1330.06,969v1H1469.7a32.56,32.56,0,0,1-5.13.81q-65.34.06-130.67,0c-3.64,0-5.54,1.08-7.22,4.4-3.78,7.5-8.16,14.7-12.3,22-.46-1.82-1.31-3.65-1.32-5.48-.09-25.33.06-50.66-.17-76,0-4.63,1.27-5.84,5.85-5.82,38.15.18,76.31.11,114.47.06a40.73,40.73,0,0,0,5.76-.81l29.36,1.69-3.27.47c.06.34.11.67.17,1l6.75-1.2,27.69,3.89-29.6,54Z" transform="translate(-1104 -587)"/><path class="a" d="M1652.19,647.11c-6.61,0-13.24.15-19.85-.06a7.52,7.52,0,0,0-7.12,3.38c-9.29,12.6-18.88,25-28.17,37.58-2.17,3-4.38,4.83-8.2,4.13a16.67,16.67,0,0,0-3,0c-8.45,0-8.45,0-13.28-8.22,4.75,0,9.15-.18,13.53.06,3,.17,4.86-1,6.64-3.34,12.27-16.39,24.67-32.67,37.45-49.56L1652.53,646Z" transform="translate(-1104 -587)"/><path class="e" d="M1414,699.17a49.85,49.85,0,0,1-6.26.8Q1260.85,700,1114,700a52.81,52.81,0,0,0-6.82.88l-2-1c1.31-.39,2.62-1.1,3.94-1.1q150.64,0,301.3.15C1411.64,699,1412.8,699.1,1414,699.17Z" transform="translate(-1104 -587)"/><path class="e" d="M1439,909.15a40.73,40.73,0,0,1-5.76.81c-38.16,0-76.32.12-114.47-.06-4.58,0-5.89,1.19-5.85,5.82.23,25.32.08,50.65.17,76,0,1.83.86,3.66,1.32,5.48-.49,1.2-1,2.39-1.48,3.58a31.5,31.5,0,0,1-.83-5.13Q1312,952.31,1312,909a7.45,7.45,0,0,1,1.45-.29q62.27.1,124.54.24A4.87,4.87,0,0,1,1439,909.15Z" transform="translate(-1104 -587)"/><path class="e" d="M1450.11,1002q-50,0-100,0a26.38,26.38,0,0,1-4.81-.89,24.74,24.74,0,0,1,4.59-.87q47.47-.08,95,0C1446.62,1000.24,1448.37,1001.36,1450.11,1002Z" transform="translate(-1104 -587)"/><path class="e" d="M1440,1021a23.61,23.61,0,0,1-4.66,1q-37.87.09-75.74,0a31.26,31.26,0,0,1-5.29-.89,15.45,15.45,0,0,1,3.58-.87q39.46-.08,78.93,0A13.67,13.67,0,0,1,1440,1021Z" transform="translate(-1104 -587)"/><path class="f" d="M1475.78,980a5.12,5.12,0,0,1,.14.68c-2,.07-4,.2-6,.2q-64.54,0-129.1,0c-2,0-3.95.23-5.93.36l.17-.45a42.17,42.17,0,0,1,5.76-.79Q1408.32,980,1475.78,980Z" transform="translate(-1104 -587)"/><path class="e" d="M1469.7,970H1330.06v-1h140C1470,969.35,1469.82,969.67,1469.7,970Z" transform="translate(-1104 -587)"/><path class="f" d="M1453.92,990.52a2.34,2.34,0,0,0-.3.47H1340.24c-.06-.22-.12-.43-.16-.66,1-.07,2-.22,3-.22q53.46,0,106.91,0C1451.28,990.13,1452.6,990.38,1453.92,990.52Z" transform="translate(-1104 -587)"/><path class="g" d="M1447.18,1162.18c-5.28.29-10.56.84-15.84.85-26.33.09-52.66,0-79,.08a33,33,0,0,0-5.18.81l-.54-1.42a30,30,0,0,1,3.38-.41q47.6-.1,95.2-.15A13.41,13.41,0,0,1,1447.18,1162.18Z" transform="translate(-1104 -587)"/><path class="f" d="M1349.24,1011c-.06-.22-.12-.44-.16-.66q43.93-.12,87.87-.22c2.65,0,5.31.22,8,.33a5.52,5.52,0,0,0-.26.55Z" transform="translate(-1104 -587)"/><path class="e" d="M1314.89,1094a46.44,46.44,0,0,0,6.77,1c26.53.08,53.07,0,79.6.09a37.49,37.49,0,0,1,5.71.85l-87.92.22a29.31,29.31,0,0,1-4-.16A8.36,8.36,0,0,1,1314.89,1094Z" transform="translate(-1104 -587)"/><path class="h" d="M1312,909q0,43.32.07,86.63a31.5,31.5,0,0,0,.83,5.13l-1.69.12c-.06-1.15-.18-2.31-.18-3.46q0-41.88,0-83.75A23.41,23.41,0,0,1,1312,909Z" transform="translate(-1104 -587)"/><path class="e" d="M1235.09,775.52c1.09-.51,2.18-1.45,3.28-1.45,23.74-.09,47.48-.07,71.22-.06a4.32,4.32,0,0,1,1.36.3,5.74,5.74,0,0,1-.13.8l-63.78.21C1243.05,775.34,1239.07,775.45,1235.09,775.52Z" transform="translate(-1104 -587)"/><path class="e" d="M1667,658a21,21,0,0,1-4.18.92c-8.46.08-16.91.1-25.37,0-1.52,0-3-.75-4.54-1.16Z" transform="translate(-1104 -587)"/><path class="e" d="M1563,673.05l22.13.17Z" transform="translate(-1104 -587)"/><path class="f" d="M1472,1054.89a7.66,7.66,0,0,0-.23-.82l43.55,0-.45.82Z" transform="translate(-1104 -587)"/><path class="e" d="M1556.87,1010q0-9.47,0-18.94Q1556.86,1000.51,1556.87,1010Z" transform="translate(-1104 -587)"/><path class="g" d="M1311.92,1023l1,16.9-1.68.1Z" transform="translate(-1104 -587)"/><path class="f" d="M1311.83,1062l1.12,14.72a11.09,11.09,0,0,1-1.81-.33C1311.3,1071.63,1311.57,1066.84,1311.83,1062Z" transform="translate(-1104 -587)"/><path class="e" d="M1583.89,704.19l13.85-1.69.09,1L1584.15,705A.75.75,0,0,1,1583.89,704.19Z" transform="translate(-1104 -587)"/><path class="i" d="M1448,1189.88l12.89-1.19c0,.49,0,1,.07,1.45h-9.29Z" transform="translate(-1104 -587)"/><path class="i" d="M1462,633.87l7.9-1.11c0,.33.07.67.11,1l-4.31.35Z" transform="translate(-1104 -587)"/><path class="i" d="M1472,911.11l-6.75,1.2-.17-1,3.27-.47Z" transform="translate(-1104 -587)"/><path class="i" d="M1172.9,917.22l.33-4.29,1,.12-1.14,6.92Z" transform="translate(-1104 -587)"/><path class="e" d="M1449,701.12l-6.89,1.12-.12-1,3.32-.33Z" transform="translate(-1104 -587)"/><path class="i" d="M1504,589.11l-6.92,1.14-.11-1,4.28-.33Z" transform="translate(-1104 -587)"/><path class="e" d="M1334.92,981.27c2-.13,4-.36,5.93-.36q64.56,0,129.1,0c2,0,4-.13,6-.2-1.81.44-3.62,1.26-5.44,1.26q-64.63.12-129.26,0A56.19,56.19,0,0,1,1334.92,981.27Z" transform="translate(-1104 -587)"/><path class="e" d="M1453.92,990.52c-1.32-.14-2.64-.39-4-.4q-53.46,0-106.91,0c-1,0-2,.15-3,.22,1.47-.44,2.94-1.28,4.42-1.28q52.56-.12,105.14,0C1451.07,989.07,1452.49,990,1453.92,990.52Z" transform="translate(-1104 -587)"/><path class="e" d="M1444.91,1010.45c-2.65-.11-5.31-.33-8-.33q-43.93.09-87.87.22c1.47-.45,2.94-1.28,4.41-1.28q43.54-.12,87.09,0C1442,1009.07,1443.47,1010,1444.91,1010.45Z" transform="translate(-1104 -587)"/><path class="e" d="M1472,1054.89l42.87,0c-.46.36-.91,1-1.37,1-12.8,0-25.6.07-38.41,0A10.5,10.5,0,0,1,1472,1054.89Z" transform="translate(-1104 -587)"/><path class="e" d="M1476.07,1043.89c.57-.28,1.15-.82,1.72-.82,12,0,24.1,0,36.14.88h-37.8Z" transform="translate(-1104 -587)"/><path class="a" d="M1662.34,892.28V807.72a6.93,6.93,0,0,1,13.86,0v84.56a6.93,6.93,0,1,1-13.86,0Z" transform="translate(-1104 -587)"/><path class="a" d="M1691.6,801h56.28a6.93,6.93,0,0,1,0,13.86H1726.6v77.42a6.93,6.93,0,1,1-13.86,0V814.86H1691.6a6.93,6.93,0,1,1,0-13.86Z" transform="translate(-1104 -587)"/><path class="e" d="M1491,587c-1.11.67-2.22,1.89-3.34,1.91q-14.65.23-29.32,0c-1.12,0-2.23-1.24-3.34-1.91h5l2,.86,2-.86h19l2,.85,2-.85Z" transform="translate(-1104 -587)"/></svg>