<svg id="Layer_1" data-name="Layer 1" xmlns="http://www.w3.org/2000/svg" viewBox="0 0 928 1083"><title>WhiteQB</title><circle cx="464" cy="463" r="184" style="fill:#fff"/><rect x="792" y="462" width="136" height="621" style="fill:#fff"/><path d="M1395.5,438a462.26,462.26,0,0,0-162.15,29.17l-.35.13V616.74A326.38,326.38,0,0,1,1395,574c181.15,0,328,146.85,328,328s-146.85,328-328,328-328-146.85-328-328q0-13,1-25.73V573.53a462,462,0,0,0-136,328c0,256,207.51,463.5,463.5,463.5S1859,1157.49,1859,901.5,1651.49,438,1395.5,438Z" transform="translate(-932 -438)" style="fill:#fff"/></svg>